<svg version="1.1" xmlns="http://www.w3.org/2000/svg" xmlns:xlink="http://www.w3.org/1999/xlink" style="" xml:space="preserve" width="512.0009765625" height="512.0009765625"><rect id="backgroundrect" width="100%" height="100%" x="0" y="0" fill="none" stroke="none"/>





















<g class="currentLayer" style=""><title>Layer 1</title><g id="svg_1" class="selected" fill-opacity="1" fill="#ff4e5b">
	<g id="svg_2" fill="#ff4e5b">
		<path d="M324.259,0c-4.71,0-8.533,3.823-8.533,8.533s3.823,8.533,8.533,8.533c94.106,0,170.667,76.561,170.667,170.667    c0,4.71,3.823,8.533,8.533,8.533c4.719,0,8.533-3.823,8.533-8.533C511.992,84.216,427.777,0,324.259,0z" id="svg_3" fill="#ff4e5b"/>
	</g>
</g><g id="svg_4" class="selected" fill-opacity="1" fill="#ff4e5b">
	<g id="svg_5" fill="#ff4e5b">
		<path d="M324.259,51.2c-4.71,0-8.533,3.823-8.533,8.533s3.823,8.533,8.533,8.533c65.877,0,119.467,53.589,119.467,119.467    c0,4.71,3.823,8.533,8.533,8.533c4.719,0,8.533-3.823,8.533-8.533C460.792,112.453,399.548,51.2,324.259,51.2z" id="svg_6" fill="#ff4e5b"/>
	</g>
</g><g id="svg_7" class="selected" fill-opacity="1" fill="#ff4e5b">
	<g id="svg_8" fill="#ff4e5b">
		<path d="M324.259,102.4c-4.71,0-8.533,3.823-8.533,8.533s3.823,8.533,8.533,8.533c37.641,0,68.267,30.626,68.267,68.267    c0,4.71,3.823,8.533,8.533,8.533c4.719,0,8.533-3.823,8.533-8.533C409.592,140.681,371.311,102.4,324.259,102.4z" id="svg_9" fill="#ff4e5b"/>
	</g>
</g><g id="svg_10" class="" fill-opacity="1" fill="#ff4e5b">
	<g id="svg_11" fill="#ff4e5b">
		<path d="M461.765,320.214c-23.219-3.055-46.114-8.755-68.045-16.922c-21.239-7.962-45.372-2.825-61.534,13.124l-26.974,26.914    c-56.559-33.348-103.808-80.503-137.233-136.951l26.991-26.931c15.957-16.102,21.111-40.209,13.133-61.397    c-8.183-21.896-13.892-44.74-16.964-67.994C187.051,21.231,162.091-0.111,132.916,0H58.258c-1.741,0-3.482,0.085-5.205,0.239    C37.547,1.639,23.51,8.986,13.534,20.916C3.559,32.854-1.169,47.958,0.248,63.582c8.269,77.722,35.149,153.472,77.688,219.008    c38.622,60.655,91.162,113.092,151.876,151.595c65.417,42.342,140.962,69.163,218.641,77.585c1.758,0.154,3.524,0.23,5.299,0.23    c0.051,0,0.102,0,0.162,0c32.154-0.137,58.197-26.351,58.069-58.411v-74.402C512.658,349.688,491.119,324.344,461.765,320.214z     M494.917,378.88c0,0.068,0,0.145,0,0.213v74.539c0.085,22.682-18.338,41.216-41.062,41.31c-1.331-0.051-2.611-0.051-3.738-0.154    c-74.871-8.124-147.849-34.031-211.106-74.974c-58.675-37.214-109.397-87.834-146.722-146.458    C51.166,210.006,25.208,136.841,17.229,61.91c-0.99-10.94,2.347-21.606,9.404-30.046s16.981-13.636,27.955-14.626    c1.22-0.111,2.441-0.171,3.669-0.171h74.735c0.137,0,0.273,0,0.41,0c20.446,0,37.965,15.147,40.823,35.302    c3.234,24.448,9.25,48.563,17.894,71.68c5.641,14.984,1.997,32.017-9.242,43.358l-31.607,31.539    c-2.731,2.722-3.294,6.921-1.391,10.266c36.164,63.488,88.909,116.122,152.508,152.209c3.345,1.903,7.526,1.323,10.24-1.382    l31.573-31.505c11.409-11.255,28.501-14.882,43.537-9.25c23.142,8.619,47.3,14.635,71.714,17.843    C480.188,340.045,495.437,357.991,494.917,378.88z" id="svg_12" fill="#ff4e5b"/>
	</g>
</g><g id="svg_13" class="" fill-opacity="1" fill="#ff4e5b">
	<g id="svg_14" fill="#ff4e5b">
		<path d="M127.17456084489822,34.13399887084961 H57.431553184986115 c-0.7170000076293945,0 -1.4249999523162842,0.03400000184774399 -2.132999897003174,0.10199999809265137 c-8.694999694824219,0.7850000262260437 -14.01200008392334,5.7170000076293945 -16.400999069213867,8.576000213623047 c-1.9199999570846558,2.2950000762939453 -6.306000232696533,8.559000015258789 -5.538000106811523,17.160999298095703 c3.2260000705718994,30.26799964904785 9.062000274658203,59.715999603271484 17.364999771118164,87.53500366210938 c1.1089999675750732,3.694999933242798 4.497000217437744,6.0929999351501465 8.175000190734863,6.0929999351501465 c0.8109999895095825,0 1.6299999952316284,-0.11100000143051147 2.4489998817443848,-0.3580000102519989 c4.513999938964844,-1.3480000495910645 7.083000183105469,-6.10099983215332 5.734000205993652,-10.614999771118164 c-8.003999710083008,-26.812000274658203 -13.63599967956543,-55.22800064086914 -16.733999252319336,-84.31800079345703 c-0.19599999487400055,-2.1670000553131104 1.2120000123977661,-4.035999774932861 1.6469999551773071,-4.565000057220459 c0.699999988079071,-0.8360000252723694 2.260999917984009,-2.2780001163482666 5.435999870300293,-2.5429999828338623 h69.72599792480469 c0.008999999612569809,0 0.008999999612569809,0 0.008999999612569809,0 c4.710000038146973,0 8.532999992370605,-3.813999891281128 8.532999992370605,-8.524999618530273 C135.70755034685135,37.96500015258789 131.88455229997635,34.13399887084961 127.17456084489822,34.13399887084961 z" id="svg_15" fill="#ff4e5b"/>
	</g>
</g><g id="svg_16" class="" fill-opacity="1" fill="#ff4e5b">
	<g id="svg_17" fill="#ff4e5b">
		<path d="M469.325,375.467c-4.71,0-8.533,3.823-8.533,8.533l-0.009,69.623c0.009,1.92-0.725,3.729-2.065,5.077    c-1.34,1.348-3.115,2.091-4.804,2.099l-0.785-0.017c-29.158-3.166-57.335-8.781-83.746-16.691    c-4.497-1.357-9.267,1.212-10.624,5.726c-1.357,4.514,1.212,9.267,5.726,10.624c27.401,8.209,56.61,14.029,86.955,17.323    c0.7,0.068,2.125,0.102,2.33,0.102c6.46-0.026,12.518-2.56,17.067-7.142c4.548-4.591,7.04-10.684,7.014-17.135L477.859,384    C477.859,379.29,474.036,375.467,469.325,375.467z" id="svg_18" fill="#ff4e5b"/>
	</g>
</g><g id="svg_19">
</g><g id="svg_20">
</g><g id="svg_21">
</g><g id="svg_22">
</g><g id="svg_23">
</g><g id="svg_24">
</g><g id="svg_25">
</g><g id="svg_26">
</g><g id="svg_27">
</g><g id="svg_28">
</g><g id="svg_29">
</g><g id="svg_30">
</g><g id="svg_31">
</g><g id="svg_32">
</g><g id="svg_33">
</g></g></svg>