<svg version="1.1" xmlns="http://www.w3.org/2000/svg" xmlns:xlink="http://www.w3.org/1999/xlink" style="enable-background:new 0 0 511.998 511.998;" xml:space="preserve" width="511.998" height="511.998"><rect id="backgroundrect" width="100%" height="100%" x="0" y="0" fill="none" stroke="none"/>
















<g class="currentLayer" style=""><title>Layer 1</title><g id="svg_1" class="selected" fill-opacity="1" fill="#ff4e5b">
	<g id="svg_2" fill="#ff4e5b">
		<g id="svg_3" fill="#ff4e5b">
			<path d="M167.9739990234375,350.4729919433594 c21.086000442504883,29.729999542236328 42.13800048828125,56.31999969482422 56.09000015258789,73.44599914550781 c2.0309998989105225,2.492000102996826 3.934000015258789,4.803999900817871 5.7769999504089355,7.031000137329102 h-42.10300064086914 c-4.7129998207092285,0 -8.532999992370605,3.819999933242798 -8.532999992370605,8.532999992370605 s3.819999933242798,8.532999992370605 8.532999992370605,8.532999992370605 H324.2699890136719 c4.7129998207092285,0 8.532999992370605,-3.819999933242798 8.532999992370605,-8.532999992370605 s-3.819999933242798,-8.532999992370605 -8.532999992370605,-8.532999992370605 h-42.10300064086914 c1.843000054359436,-2.2269999980926514 3.746000051498413,-4.539999961853027 5.785999774932861,-7.031000137329102 c13.942999839782715,-17.066999435424805 34.98699951171875,-43.715999603271484 56.08100128173828,-73.44599914550781 c20.929000854492188,-28.905000686645508 39.766998291015625,-59.266998291015625 56.37099838256836,-90.85399627685547 c17.424999237060547,-34.21900177001953 26.266000747680664,-62.625999450683594 26.266000747680664,-84.43699645996094 c0.057999998331069946,-45.32099914550781 -17.926000595092773,-88.8010025024414 -49.97999954223633,-120.84100341796875 c-2.1410000324249268,-2.2200000286102295 -5.313000202178955,-3.111999988555908 -8.29699993133545,-2.3329999446868896 c-2.9839999675750732,0.7789999842643738 -5.315999984741211,3.1070001125335693 -6.098999977111816,6.090000152587891 c-0.7829999923706055,2.9830000400543213 0.10400000214576721,6.156000137329102 2.321000099182129,8.300000190734863 c28.851999282836914,28.8439998626709 45.03900146484375,67.98500061035156 44.987998962402344,108.78299713134766 c0,19.097999572753906 -8.208999633789062,44.902000427246094 -24.405000686645508,76.68900299072266 c-16.229000091552734,30.854999542236328 -34.63999938964844,60.51300048828125 -55.090999603271484,88.74700164794922 c-20.804000854492188,29.34600067138672 -41.599998474121094,55.637001037597656 -55.38100051879883,72.53299713134766 c-4.581999778747559,5.614999771118164 -8.704000473022461,10.581000328063965 -12.220000267028809,14.779999732971191 c-1.6410000324249268,1.8739999532699585 -4.011000156402588,2.947999954223633 -6.501999855041504,2.947999954223633 c-2.490999937057495,0 -4.861000061035156,-1.0750000476837158 -6.501999855041504,-2.947999954223633 c-3.5160000324249268,-4.197999954223633 -7.63700008392334,-9.164999961853027 -12.220000267028809,-14.779999732971191 c-13.781000137329102,-16.886999130249023 -34.57699966430664,-43.17900085449219 -55.38100051879883,-72.53299713134766 c-20.451000213623047,-28.233999252319336 -38.86199951171875,-57.891998291015625 -55.090999603271484,-88.74700164794922 c-16.21299934387207,-31.78700065612793 -24.405000686645508,-57.590999603271484 -24.405000686645508,-76.68900299072266 c-0.004999999888241291,-61.808998107910156 36.95899963378906,-117.62699890136719 93.86699676513672,-141.7469940185547 c38.237998962402344,-16.034000396728516 81.31400299072266,-16.034000396728516 119.552001953125,0 c2.808000087738037,1.190000057220459 6.0370001792907715,0.7929999828338623 8.472000122070312,-1.0440000295639038 c2.434999942779541,-1.8359999656677246 3.7049999237060547,-4.831999778747559 3.3320000171661377,-7.859000205993652 c-0.37299999594688416,-3.0269999504089355 -2.3320000171661377,-5.625 -5.139999866485596,-6.815000057220459 c-86.89800262451172,-36.652000427246094 -187.05599975585938,4.061999797821045 -223.73500061035156,90.947998046875 c-8.895000457763672,21.04599952697754 -13.456999778747559,43.66899871826172 -13.413999557495117,66.51699829101562 c0,21.81100082397461 8.840999603271484,50.21900177001953 26.266000747680664,84.4800033569336 C128.20799255371094,291.2340087890625 147.0469970703125,321.5820007324219 167.9739990234375,350.4729919433594 z" id="svg_4" fill="#ff4e5b"/>
			<path d="M256.00299072265625,98.1510009765625 c4.7129998207092285,0 8.532999992370605,-3.819999933242798 8.532999992370605,-8.532999992370605 s-3.819999933242798,-8.532999992370605 -8.532999992370605,-8.532999992370605 c-40.709999084472656,-0.0010000000474974513 -75.75199890136719,28.756999969482422 -83.69499969482422,68.68499755859375 c-7.942999839782715,39.928001403808594 13.425999641418457,79.90599822998047 51.0369987487793,95.48600006103516 c37.611000061035156,15.579999923706055 80.98999786376953,2.4210000038146973 103.60800170898438,-31.42799949645996 c22.618000030517578,-33.8489990234375 18.174999237060547,-78.96199798583984 -10.611000061035156,-107.7490005493164 c-2.1429998874664307,-2.2179999351501465 -5.315000057220459,-3.1080000400543213 -8.298999786376953,-2.3269999027252197 c-2.9830000400543213,0.781000018119812 -5.313000202178955,3.1110000610351562 -6.093999862670898,6.093999862670898 c-0.781000018119812,2.9839999675750732 0.10899999737739563,6.156000137329102 2.3269999027252197,8.298999786376953 c23.030000686645508,23.02899932861328 26.584999084472656,59.11800003051758 8.491999626159668,86.197998046875 c-18.093000411987305,27.079999923706055 -52.79600143432617,37.608001708984375 -82.88500213623047,25.145999908447266 c-30.089000701904297,-12.461999893188477 -47.185001373291016,-44.444000244140625 -40.83300018310547,-76.38700103759766 S223.43499755859375,98.1520004272461 256.00299072265625,98.1510009765625 z" id="svg_5" fill="#ff4e5b"/>
			<path d="M508.7860107421875,469.9570007324219 l-52.47999954223633,-93.86699676513672 c-4.744999885559082,-8.34000015258789 -13.62399959564209,-13.465999603271484 -23.2189998626709,-13.406000137329102 H372.2699890136719 c-4.7129998207092285,0 -8.532999992370605,3.819999933242798 -8.532999992370605,8.532999992370605 s3.819999933242798,8.532999992370605 8.532999992370605,8.532999992370605 h60.81700134277344 c3.4159998893737793,-0.06599999964237213 6.603000164031982,1.715000033378601 8.336999893188477,4.658999919891357 l52.4630012512207,93.86699676513672 c1.4290000200271606,2.441999912261963 1.3990000486373901,5.4710001945495605 -0.07699999958276749,7.885000228881836 c-1.7430000305175781,2.880000114440918 -4.894999980926514,4.605000019073486 -8.260000228881836,4.5229997634887695 H26.457000732421875 c-3.361999988555908,0.07999999821186066 -6.510000228881836,-1.6460000276565552 -8.251999855041504,-4.5229997634887695 c-1.4759999513626099,-2.4140000343322754 -1.5049999952316284,-5.442999839782715 -0.07699999958276749,-7.885000228881836 l52.4630012512207,-93.86699676513672 c1.7309999465942383,-2.943000078201294 4.914999961853027,-4.723999977111816 8.32800006866455,-4.658999919891357 h60.81700134277344 c4.7129998207092285,0 8.532999992370605,-3.819999933242798 8.532999992370605,-8.532999992370605 s-3.819999933242798,-8.532999992370605 -8.532999992370605,-8.532999992370605 H78.91999816894531 c-9.600000381469727,-0.06300000101327896 -18.486000061035156,5.063000202178955 -23.236000061035156,13.406000137329102 L3.2119998931884766,469.9570007324219 c-4.375,7.728000164031982 -4.27400016784668,17.20800018310547 0.26499998569488525,24.840999603271484 c4.7820000648498535,8.128000259399414 13.550999641418457,13.071000099182129 22.979999542236328,12.954000473022461 H485.54998779296875 c9.425999641418457,0.11400000005960464 18.191999435424805,-4.828000068664551 22.972000122070312,-12.954000473022461 C513.0609741210938,487.16400146484375 513.1619873046875,477.68499755859375 508.7860107421875,469.9570007324219 z" id="svg_6" fill="#ff4e5b"/>
			<path d="M418.1369934082031,405.35101318359375 h-34.132999420166016 c-1.684999942779541,0.003000000026077032 -3.3320000171661377,0.5009999871253967 -4.736000061035156,1.434000015258789 l-25.600000381469727,17.066999435424805 c-3.9210000038146973,2.615999937057495 -4.979000091552734,7.914999961853027 -2.364000082015991,11.836000442504883 c2.615999937057495,3.9210000038146973 7.914999961853027,4.979000091552734 11.836000442504883,2.364000082015991 l23.423999786376953,-15.633000373840332 h31.572999954223633 c4.7129998207092285,0 8.532999992370605,-3.821000099182129 8.532999992370605,-8.532999992370605 C426.6700134277344,409.1709899902344 422.8500061035156,405.35101318359375 418.1369934082031,405.35101318359375 z" id="svg_7" fill="#ff4e5b"/>
			<path d="M366.93701171875,465.0840148925781 c0,4.7129998207092285 3.819999933242798,8.532999992370605 8.532999992370605,8.532999992370605 h68.26699829101562 c4.7129998207092285,0 8.532999992370605,-3.819999933242798 8.532999992370605,-8.532999992370605 s-3.819999933242798,-8.532999992370605 -8.532999992370605,-8.532999992370605 H375.4700012207031 C370.7569885253906,456.5509948730469 366.93701171875,460.3710021972656 366.93701171875,465.0840148925781 z" id="svg_8" fill="#ff4e5b"/>
			<path d="M153.60299682617188,439.4840087890625 c3.76200008392334,0.004999999888241291 7.083000183105469,-2.4549999237060547 8.175999641418457,-6.054999828338623 c1.093000054359436,-3.5999999046325684 -0.3009999990463257,-7.491000175476074 -3.430999994277954,-9.57800006866455 l-25.600000381469727,-17.066999435424805 c-1.406000018119812,-0.9340000152587891 -3.056999921798706,-1.4329999685287476 -4.744999885559082,-1.434000015258789 H93.87000274658203 c-4.7129998207092285,0 -8.532999992370605,3.821000099182129 -8.532999992370605,8.532999992370605 c0,4.7129998207092285 3.821000099182129,8.532999992370605 8.532999992370605,8.532999992370605 h31.572999954223633 l23.450000762939453,15.633000373840332 C150.28799438476562,438.9809875488281 151.927001953125,439.4800109863281 153.60299682617188,439.4840087890625 z" id="svg_9" fill="#ff4e5b"/>
			<path d="M68.2699966430664,456.5509948730469 c-4.7129998207092285,0 -8.532999992370605,3.819999933242798 -8.532999992370605,8.532999992370605 s3.819999933242798,8.532999992370605 8.532999992370605,8.532999992370605 h68.26699829101562 c4.7129998207092285,0 8.532999992370605,-3.819999933242798 8.532999992370605,-8.532999992370605 s-3.819999933242798,-8.532999992370605 -8.532999992370605,-8.532999992370605 H68.2699966430664 z" id="svg_10" fill="#ff4e5b"/>
		</g>
	</g>
</g><g id="svg_11">
</g><g id="svg_12">
</g><g id="svg_13">
</g><g id="svg_14">
</g><g id="svg_15">
</g><g id="svg_16">
</g><g id="svg_17">
</g><g id="svg_18">
</g><g id="svg_19">
</g><g id="svg_20">
</g><g id="svg_21">
</g><g id="svg_22">
</g><g id="svg_23">
</g><g id="svg_24">
</g><g id="svg_25">
</g></g></svg>