<svg version="1.1" xmlns="http://www.w3.org/2000/svg" xmlns:xlink="http://www.w3.org/1999/xlink" style="" xml:space="preserve" width="512" height="512"><rect id="backgroundrect" width="100%" height="100%" x="0" y="0" fill="none" stroke="none"/>





























<g class="currentLayer" style=""><title>Layer 1</title><path style="fill:#00DDC2;" d="M288.098,445.488c-0.821-3.265-1.261-6.68-1.261-10.199c0-17.046,10.225-31.695,24.875-38.167  c5.518-2.438,10.2-6.533,12.914-11.92c8.409-16.689,25.688-28.139,45.652-28.139c15.735,0,29.804,7.113,39.177,18.298  c4.252,5.073,10.193,8.361,16.738,9.349c13.286,2.007,34.241,10.01,35.871,39.945c0.414,7.6-2.087,14.732-5.709,20.834H288.098  V445.488z" id="svg_1"/><path style="fill:#00AA95;" d="M425.146,384.503c-6.127-1.169-11.668-4.344-15.691-9.143c-9.373-11.184-23.443-18.298-39.177-18.298  c-19.964,0-37.243,11.451-45.652,28.139c-2.715,5.387-7.396,9.482-12.914,11.92c-14.65,6.472-24.875,21.121-24.875,38.167  c0,3.519,0.441,6.935,1.261,10.199h146.765C436.862,420.412,432.684,400.41,425.146,384.503z" id="svg_2"/><path style="fill:#787680;" d="M259.389,125.867c7.42,0,13.434-6.014,13.434-13.434V88.591c-4.429-0.381-8.908-0.587-13.434-0.587  s-9.004,0.206-13.434,0.587v23.841C245.955,119.853,251.969,125.867,259.389,125.867z" id="svg_4"/><path style="fill:#C6C5CA;" d="M394.943,438.418V243.559c0-74.555-60.999-135.554-135.554-135.554l0,0  c-74.554,0-135.554,60.999-135.554,135.554v194.859H394.943z" id="svg_5"/><path style="fill:#ACABB1;" d="M300.56201171875,113.6185536980629 c-12.99899959564209,-4.176000118255615 -26.83300018310547,-6.440000057220459 -41.17300033569336,-6.440000057220459 l0,0 c-74.55400085449219,0 -135.5540008544922,60.999000549316406 -135.5540008544922,135.5540008544922 v194.85899353027344 h82.34600067138672 V242.73255974054337 C206.18099975585938,182.51754814386368 245.9759979248047,131.15255790948868 300.56201171875,113.6185536980629 z" id="svg_6" class=""/><path style="fill:#FF3F62;" d="M228.266,445.488c0.821-3.265,1.261-6.68,1.261-10.199c0-17.046-10.225-31.695-24.875-38.167  c-5.518-2.438-10.2-6.533-12.914-11.92c-8.409-16.689-25.688-28.139-45.652-28.139c-15.735,0-29.804,7.113-39.177,18.298  c-4.252,5.073-10.193,8.361-16.738,9.349c-13.286,2.007-34.241,10.01-35.871,39.945c-0.414,7.6,2.087,14.732,5.709,20.834h168.257  V445.488z" id="svg_7"/><path style="fill:#D80027;" d="M124.607,425.853c1.629-29.935,22.585-37.938,35.871-39.945c6.545-0.989,12.486-4.276,16.738-9.349  c1.442-1.721,3.008-3.332,4.662-4.85c-9.217-9.056-21.847-14.648-35.792-14.648c-15.735,0-29.804,7.113-39.177,18.298  c-4.252,5.073-10.193,8.361-16.738,9.349c-13.286,2.007-34.241,10.01-35.871,39.945c-0.414,7.6,2.086,14.732,5.709,20.834h69.618  C126.383,439.658,124.22,432.961,124.607,425.853z" id="svg_8"/><path style="fill:#E0E0E2;" d="M456.789,504.5H55.211c-18.173,0-33.041-14.869-33.041-33.041l0,0  c0-18.173,14.869-33.041,33.041-33.041H456.79c18.173,0,33.041,14.869,33.041,33.041l0,0  C489.831,489.632,474.962,504.5,456.789,504.5z" id="svg_9"/><path style="fill:#C6C5CA;" d="M144.925,471.459L144.925,471.459c0-18.173,14.868-33.041,33.041-33.041H55.211  c-18.173,0-33.041,14.869-33.041,33.041l0,0c0,18.173,14.868,33.041,33.041,33.041h122.755  C159.793,504.5,144.925,489.632,144.925,471.459z" id="svg_10"/><path d="M455.13610899448395,430.9179992675781 h-54.34700012207031 v-52.18199920654297 c0.4300000071525574,0.47099998593330383 6.942999839782715,10.614999771118164 22.631000518798828,13.388999938964844 c9.545999526977539,1.687999963760376 21.445999145507812,6.40500020980835 27.148000717163086,20.413999557495117 c2.625999927520752,6.453000068664551 8.74899959564209,4.8460001945495605 9.581000328063965,4.550000190734863 c3.9019999504089355,-1.3890000581741333 5.939000129699707,-5.678999900817871 4.550000190734863,-9.581000328063965 c-5.89900016784668,-16.57200050354004 -19.763999938964844,-27.30299949645996 -39.03900146484375,-30.21500015258789 c-4.763999938964844,-0.718999981880188 -9.064000129699707,-3.117000102996826 -12.109999656677246,-6.750999927520752 c-3.7009999752044678,-4.416999816894531 -7.986000061035156,-8.21500015258789 -12.76099967956543,-11.352999687194824 v-115.62999725341797 c0,-71.7699966430664 -53.12799835205078,-131.35699462890625 -122.12000274658203,-141.51800537109375 V77.7490005493164 h14.026000022888184 c11.543000221252441,0 20.93400001525879,-9.390999794006348 20.93400001525879,-20.93400001525879 s-9.390999794006348,-20.93400001525879 -20.93400001525879,-20.93400001525879 h-14.026000022888184 V20.934999465942383 C278.6690984964371,9.392000198364258 269.2791143655777,0 257.7361150979996,0 s-20.93400001525879,9.392000198364258 -20.93400001525879,20.934999465942383 v14.946999549865723 H222.77710020542145 c-11.543000221252441,0 -20.93400001525879,9.390999794006348 -20.93400001525879,20.93400001525879 s9.390999794006348,20.93400001525879 20.93400001525879,20.93400001525879 h14.024999618530273 v24.322999954223633 c-25.729000091552734,3.8519999980926514 -50.17499923706055,14.734000205993652 -70.40799713134766,31.5939998626709 c-3.183000087738037,2.6510000228881836 -3.611999988555908,7.38100004196167 -0.9610000252723694,10.562999725341797 s7.38100004196167,3.6110000610351562 10.562999725341797,0.9610000252723694 c22.974000930786133,-19.14299964904785 52.00299835205078,-29.684999465942383 81.73999786376953,-29.684999465942383 c34.05500030517578,0 66.1709976196289,13.361000061035156 90.43199920654297,37.62200164794922 s37.62200164794922,56.37699890136719 37.62200164794922,90.43199920654297 v119.77999877929688 c0,0.0020000000949949026 0,0.003000000026077032 0,0.004999999888241291 v67.572998046875 H235.17410337924957 c-0.43700000643730164,-4.984000205993652 -1.6160000562667847,-9.835000038146973 -3.5369999408721924,-14.468000411987305 c-1.5889999866485596,-3.8269999027252197 -5.979000091552734,-5.642000198364258 -9.802000045776367,-4.053999900817871 c-3.8259999752044678,1.5880000591278076 -5.640999794006348,5.97599983215332 -4.053999900817871,9.802000045776367 c1.1619999408721924,2.8010001182556152 1.9279999732971191,5.7210001945495605 2.308000087738037,8.720000267028809 H60.56210768222809 c-0.38100001215934753,-1.9880000352859497 -0.5299999713897705,-3.947000026702881 -0.4259999990463257,-5.855000019073486 c1.0369999408721924,-19.055999755859375 10.963000297546387,-30.13800048828125 29.50200080871582,-32.9379997253418 c8.381999969482422,-1.2660000324249268 15.970000267028809,-5.508999824523926 21.364999771118164,-11.947999954223633 c8.317000389099121,-9.92300033569336 20.50200080871582,-15.61400032043457 33.43000030517578,-15.61400032043457 c16.56399917602539,0 31.489999771118164,9.201000213623047 38.95399856567383,24.013999938964844 c3.377000093460083,6.703000068664551 9.267000198364258,12.173999786376953 16.582000732421875,15.404999732971191 c3.7880001068115234,1.6740000247955322 8.217000007629395,-0.04100000113248825 9.890999794006348,-3.8299999237060547 s-0.04100000113248825,-8.217000007629395 -3.8299999237060547,-9.890999794006348 c-4.145999908447266,-1.8309999704360962 -7.429999828338623,-4.826000213623047 -9.246999740600586,-8.4350004196167 c-10.027000427246094,-19.899999618530273 -30.086000442504883,-32.263999938964844 -52.349998474121094,-32.263999938964844 c-5.0370001792907715,0 -9.984000205993652,0.6620000004768372 -14.75100040435791,1.8990000486373901 V243.5590057373047 c0,-26.972000122070312 8.38700008392334,-52.819000244140625 24.25200080871582,-74.74700164794922 c2.427999973297119,-3.3550000190734863 1.6759999990463257,-8.045000076293945 -1.6799999475479126,-10.472999572753906 s-8.043999671936035,-1.6770000457763672 -10.472999572753906,1.6799999475479126 c-17.729000091552734,24.503000259399414 -27.100000381469727,53.39099884033203 -27.100000381469727,83.54000091552734 v114.1259994506836 c-5.678999900817871,3.3510000705718994 -10.824999809265137,7.666999816894531 -15.175999641418457,12.857000350952148 c-3.0450000762939453,3.634999990463257 -7.34499979019165,6.0320000648498535 -12.107999801635742,6.750999927520752 c-25.429000854492188,3.8410000801086426 -40.82400131225586,20.954999923706055 -42.2400016784668,46.95500183105469 c-0.1340000033378601,2.4730000495910645 -0.012000000104308128,4.96999979019165 0.3400000035762787,7.4770002365112305 c-18.506000518798828,3.747999906539917 -32.47999954223633,20.138999938964844 -32.47999954223633,39.73400115966797 C13.017107605934143,493.81298828125 31.20310652256012,512 53.55810606479645,512 h401.5780029296875 c22.354000091552734,0 40.54100036621094,-18.187000274658203 40.54100036621094,-40.54100036621094 S477.4911199808121,430.9179992675781 455.13610899448395,430.9179992675781 zM251.80210936069489,100.63300323486328 V70.2490005493164 c0,-4.14300012588501 -3.3570001125335693,-7.5 -7.5,-7.5 H222.77710020542145 c-3.2709999084472656,0 -5.934000015258789,-2.6619999408721924 -5.934000015258789,-5.934000015258789 s2.6619999408721924,-5.934000015258789 5.934000015258789,-5.934000015258789 h21.524999618530273 c4.14300012588501,0 7.5,-3.3570001125335693 7.5,-7.5 V20.934999465942383 c0,-3.2720000743865967 2.6619999408721924,-5.934999942779541 5.934000015258789,-5.934999942779541 s5.934000015258789,2.6619999408721924 5.934000015258789,5.934999942779541 v22.44700050354004 c0,4.14300012588501 3.3570001125335693,7.5 7.5,7.5 h21.525999069213867 c3.2709999084472656,0 5.934000015258789,2.6619999408721924 5.934000015258789,5.934000015258789 s-2.6619999408721924,5.934000015258789 -5.934000015258789,5.934000015258789 h-21.525999069213867 c-4.14300012588501,0 -7.5,3.3570001125335693 -7.5,7.5 v30.38800048828125 C261.7001043558121,100.55699920654297 253.77610838413239,100.55000305175781 251.80210936069489,100.63300323486328 zM455.13610899448395,497 H53.55810606479645 c-14.083000183105469,0 -25.541000366210938,-11.458000183105469 -25.541000366210938,-25.541000366210938 s11.458000183105469,-25.541000366210938 25.541000366210938,-25.541000366210938 h401.5780029296875 c14.083000183105469,0 25.541000366210938,11.458000183105469 25.541000366210938,25.541000366210938 S469.21911680698395,497 455.13610899448395,497 z" id="svg_11" class=""/><path d="M306.833,297.074c-4.143,0-7.5-3.357-7.5-7.5v-81.78c0-3.675,2.663-6.809,6.29-7.401c1.046-0.173,25.765-4.036,40.886,8.815  c7.453,6.333,11.231,15.29,11.231,26.621c0,11.302-3.76,20.368-11.176,26.948c-9.731,8.634-23.479,10.507-32.231,10.723v16.074  C314.333,293.717,310.976,297.074,306.833,297.074z M314.333,214.729v43.782c6.89-0.223,16.433-1.743,22.309-6.982  c4.104-3.659,6.099-8.794,6.099-15.699c0-6.822-1.944-11.792-5.944-15.191C330.607,215.38,320.743,214.588,314.333,214.729z" id="svg_12"/><path d="M206.883,263.92c0.467-0.372,12.562-7.92,12.562-28.091c0-11.331-3.778-20.288-11.231-26.621  c-15.121-12.852-39.84-8.988-40.886-8.815c-3.627,0.593-6.29,3.727-6.29,7.401v81.78c0,4.143,3.357,7.5,7.5,7.5s7.5-3.357,7.5-7.5  V273.5c4.784-0.118,11.061-0.741,17.359-2.683l7.336,21.209c2.418,6.676,8.729,4.917,9.54,4.636c3.914-1.354,5.99-5.625,4.636-9.54  L206.883,263.92z M176.038,214.729c6.414-0.141,16.273,0.651,22.463,5.909c4,3.399,5.944,8.369,5.944,15.191  c0,6.905-1.995,12.04-6.099,15.699c-5.876,5.239-15.419,6.76-22.309,6.982v-43.781H176.038z" id="svg_13"/><path d="M259.389,297.074c-4.143,0-7.5-3.357-7.5-7.5v-82.368c0-4.143,3.357-7.5,7.5-7.5s7.5,3.357,7.5,7.5v82.368  C266.889,293.717,263.531,297.074,259.389,297.074z" id="svg_14"/><g id="svg_15">
</g><g id="svg_16">
</g><g id="svg_17">
</g><g id="svg_18">
</g><g id="svg_19">
</g><g id="svg_20">
</g><g id="svg_21">
</g><g id="svg_22">
</g><g id="svg_23">
</g><g id="svg_24">
</g><g id="svg_25">
</g><g id="svg_26">
</g><g id="svg_27">
</g><g id="svg_28">
</g><g id="svg_29">
</g><rect fill="" style="color: rgb(0, 0, 0);" stroke-dashoffset="" fill-rule="nonzero" id="svg_30" x="236.1405029296875" y="39.173553466796875" width="48" height="5" class=""/><rect fill="" style="color: rgb(0, 0, 0);" stroke-dashoffset="" fill-rule="nonzero" id="svg_32" x="251" y="43" width="14" height="0"/><path fill="" fill-opacity="1" stroke="none" stroke-opacity="1" stroke-width="1" stroke-dasharray="none" stroke-linejoin="miter" stroke-linecap="butt" stroke-dashoffset="" fill-rule="nonzero" opacity="1" marker-start="" marker-mid="" marker-end="" d="M195.86776793003082,51.52066069841385 C195.86776793003082,21.878174126148224 221.96041929721832,-2.1322361826896667 254.17353880405426,-2.1322361826896667 C286.3866888284683,-2.1322361826896667 312.4793401956558,21.878174126148224 312.4793401956558,51.52066069841385 C312.4793401956558,81.16313964128494 286.3866888284683,105.1735537648201 254.17353880405426,105.1735537648201 C221.96041929721832,105.1735537648201 195.86776793003082,81.16313964128494 195.86776793003082,51.52066069841385 z" id="svg_3" class="" transform="translate(3.30578)"/><path fill="" fill-opacity="1" stroke="none" stroke-opacity="1" stroke-width="1" stroke-dasharray="none" stroke-linejoin="miter" stroke-linecap="butt" stroke-dashoffset="" fill-rule="nonzero" opacity="1" marker-start="" marker-mid="" marker-end="" d="M275,53 C275,53 278.3563535911602,53 282.5,53 C286.6436464088398,53 290,53 290,53 C290,53 286.6436464088398,53 282.5,53 C278.3563535911602,53 275,53 275,53 Z" id="svg_34"/></g></svg>